<?xml version="1.0" encoding="utf-8"?>
<!-- Generator: Adobe Illustrator 26.2.1, SVG Export Plug-In . SVG Version: 6.00 Build 0)  -->
<svg version="1.1" id="Layer_1" xmlns="http://www.w3.org/2000/svg" xmlns:xlink="http://www.w3.org/1999/xlink" x="0px" y="0px"
	 viewBox="0 0 805.8 125.3" style="enable-background:new 0 0 805.8 125.3;" xml:space="preserve">
<style type="text/css">
	.st0{fill:none;}
	.st1{fill:none;stroke:#000000;stroke-width:2.16;}
	.st2{fill:none;stroke:#000000;stroke-width:6.48;}
	.st3{fill:#333233;stroke:#FFFFFF;stroke-width:0.756;stroke-miterlimit:10;}
	.st4{fill:#FFFFFF;stroke:#201223;stroke-width:0.756;stroke-miterlimit:10;}
	.st5{fill:url(#SVGID_1_);stroke:#010202;stroke-width:0.756;stroke-miterlimit:10;}
	
		.st6{fill:url(#SVGID_00000093899186782151006270000009638142330204971670_);stroke:#FFFFFF;stroke-width:0.756;stroke-miterlimit:10;}
	.st7{font-family:'Roboto-Medium';}
	.st8{font-size:20px;}
	.st9{fill:#F6A661;stroke:#FFFFFF;stroke-width:0.756;stroke-miterlimit:10;}
	.st10{fill:none;stroke:#000000;stroke-width:3.3511;stroke-miterlimit:10;}
	.st11{fill:#F6A661;stroke:#FFFFFF;stroke-width:0.9928;stroke-miterlimit:10;}
	.st12{fill:#61B230;}
	.st13{fill:#323232;}
</style>
<pattern  y="78.8" width="72" height="72" patternUnits="userSpaceOnUse" id="SVGID_0000001174971028989391409" viewBox="72.2 -72 72 72" style="overflow:visible;">
	<g>
		<rect x="72.2" y="-72" class="st0" width="72" height="72"/>
		<g>
			<rect x="72.2" y="-72" class="st0" width="72" height="72"/>
			<g>
				<rect x="72.2" y="-72" class="st0" width="72" height="72"/>
				<g>
					<line class="st1" x1="144" y1="-3.6" x2="216.5" y2="-3.6"/>
					<line class="st1" x1="144" y1="-18" x2="216.5" y2="-18"/>
					<line class="st1" x1="144" y1="-32.4" x2="216.5" y2="-32.4"/>
					<line class="st1" x1="144" y1="-46.8" x2="216.5" y2="-46.8"/>
					<line class="st1" x1="144" y1="-61.2" x2="216.5" y2="-61.2"/>
					<line class="st1" x1="144" y1="-10.8" x2="216.5" y2="-10.8"/>
					<line class="st1" x1="144" y1="-25.2" x2="216.5" y2="-25.2"/>
					<line class="st1" x1="144" y1="-39.6" x2="216.5" y2="-39.6"/>
					<line class="st1" x1="144" y1="-54" x2="216.5" y2="-54"/>
					<line class="st1" x1="144" y1="-68.4" x2="216.5" y2="-68.4"/>
				</g>
				<g>
					<line class="st1" x1="72" y1="-3.6" x2="144.5" y2="-3.6"/>
					<line class="st1" x1="72" y1="-18" x2="144.5" y2="-18"/>
					<line class="st1" x1="72" y1="-32.4" x2="144.5" y2="-32.4"/>
					<line class="st1" x1="72" y1="-46.8" x2="144.5" y2="-46.8"/>
					<line class="st1" x1="72" y1="-61.2" x2="144.5" y2="-61.2"/>
					<line class="st1" x1="72" y1="-10.8" x2="144.5" y2="-10.8"/>
					<line class="st1" x1="72" y1="-25.2" x2="144.5" y2="-25.2"/>
					<line class="st1" x1="72" y1="-39.6" x2="144.5" y2="-39.6"/>
					<line class="st1" x1="72" y1="-54" x2="144.5" y2="-54"/>
					<line class="st1" x1="72" y1="-68.4" x2="144.5" y2="-68.4"/>
				</g>
				<g>
					<line class="st1" x1="0" y1="-3.6" x2="72.5" y2="-3.6"/>
					<line class="st1" x1="0" y1="-18" x2="72.5" y2="-18"/>
					<line class="st1" x1="0" y1="-32.4" x2="72.5" y2="-32.4"/>
					<line class="st1" x1="0" y1="-46.8" x2="72.5" y2="-46.8"/>
					<line class="st1" x1="0" y1="-61.2" x2="72.5" y2="-61.2"/>
					<line class="st1" x1="0" y1="-10.8" x2="72.5" y2="-10.8"/>
					<line class="st1" x1="0" y1="-25.2" x2="72.5" y2="-25.2"/>
					<line class="st1" x1="0" y1="-39.6" x2="72.5" y2="-39.6"/>
					<line class="st1" x1="0" y1="-54" x2="72.5" y2="-54"/>
					<line class="st1" x1="0" y1="-68.4" x2="72.5" y2="-68.4"/>
				</g>
			</g>
		</g>
	</g>
</pattern>
<pattern  y="78.8" width="72" height="72" patternUnits="userSpaceOnUse" id="SVGID_0000013279987062368986494" viewBox="72.2 -72 72 72" style="overflow:visible;">
	<g>
		<rect x="72.2" y="-72" class="st0" width="72" height="72"/>
		<g>
			<rect x="72.2" y="-72" class="st0" width="72" height="72"/>
			<g>
				<rect x="72.2" y="-72" class="st0" width="72" height="72"/>
				<g>
					<line class="st2" x1="144" y1="-3.6" x2="216.5" y2="-3.6"/>
					<line class="st2" x1="144" y1="-18" x2="216.5" y2="-18"/>
					<line class="st2" x1="144" y1="-32.4" x2="216.5" y2="-32.4"/>
					<line class="st2" x1="144" y1="-46.8" x2="216.5" y2="-46.8"/>
					<line class="st2" x1="144" y1="-61.2" x2="216.5" y2="-61.2"/>
					<line class="st2" x1="144" y1="-10.8" x2="216.5" y2="-10.8"/>
					<line class="st2" x1="144" y1="-25.2" x2="216.5" y2="-25.2"/>
					<line class="st2" x1="144" y1="-39.6" x2="216.5" y2="-39.6"/>
					<line class="st2" x1="144" y1="-54" x2="216.5" y2="-54"/>
					<line class="st2" x1="144" y1="-68.4" x2="216.5" y2="-68.4"/>
				</g>
				<g>
					<line class="st2" x1="72" y1="-3.6" x2="144.5" y2="-3.6"/>
					<line class="st2" x1="72" y1="-18" x2="144.5" y2="-18"/>
					<line class="st2" x1="72" y1="-32.4" x2="144.5" y2="-32.4"/>
					<line class="st2" x1="72" y1="-46.8" x2="144.5" y2="-46.8"/>
					<line class="st2" x1="72" y1="-61.2" x2="144.5" y2="-61.2"/>
					<line class="st2" x1="72" y1="-10.8" x2="144.5" y2="-10.8"/>
					<line class="st2" x1="72" y1="-25.2" x2="144.5" y2="-25.2"/>
					<line class="st2" x1="72" y1="-39.6" x2="144.5" y2="-39.6"/>
					<line class="st2" x1="72" y1="-54" x2="144.5" y2="-54"/>
					<line class="st2" x1="72" y1="-68.4" x2="144.5" y2="-68.4"/>
				</g>
				<g>
					<line class="st2" x1="0" y1="-3.6" x2="72.5" y2="-3.6"/>
					<line class="st2" x1="0" y1="-18" x2="72.5" y2="-18"/>
					<line class="st2" x1="0" y1="-32.4" x2="72.5" y2="-32.4"/>
					<line class="st2" x1="0" y1="-46.8" x2="72.5" y2="-46.8"/>
					<line class="st2" x1="0" y1="-61.2" x2="72.5" y2="-61.2"/>
					<line class="st2" x1="0" y1="-10.8" x2="72.5" y2="-10.8"/>
					<line class="st2" x1="0" y1="-25.2" x2="72.5" y2="-25.2"/>
					<line class="st2" x1="0" y1="-39.6" x2="72.5" y2="-39.6"/>
					<line class="st2" x1="0" y1="-54" x2="72.5" y2="-54"/>
					<line class="st2" x1="0" y1="-68.4" x2="72.5" y2="-68.4"/>
				</g>
			</g>
		</g>
	</g>
</pattern>
<rect x="5.8" y="11.6" class="st3" width="46" height="38.4"/>
<rect x="517" y="3.2" class="st4" width="46" height="38.4"/>
<pattern  id="SVGID_1_" xlink:href="#SVGID_0000001174971028989391409" patternTransform="matrix(1 0 0 1 -77.306 16522.6738)">
</pattern>
<rect x="579.1" y="3.2" class="st5" width="46" height="38.4"/>
<pattern  id="SVGID_00000063608535685379820000000011647895246394859967_" xlink:href="#SVGID_0000013279987062368986494" patternTransform="matrix(1 0 0 1 -77.306 16522.6738)">
</pattern>
<rect x="641.3" y="3.2" style="fill:url(#SVGID_00000063608535685379820000000011647895246394859967_);stroke:#FFFFFF;stroke-width:0.756;stroke-miterlimit:10;" width="46" height="38.4"/>
<rect x="59.4" y="11.6" class="st0" width="150.4" height="45.4"/>
<text transform="matrix(1 0 0 1 59.3557 26.5707)" class="st7 st8">Grid</text>
<text transform="matrix(1 0 0 1 59.3557 50.5707)" class="st7 st8">Consumption</text>
<text transform="matrix(1 0 0 1 59.3557 90.2758)" class="st7 st8">Excess Grid</text>
<text transform="matrix(1 0 0 1 59.3557 114.2758)" class="st7 st8">Consumption</text>
<rect x="209.1" y="11.6" class="st9" width="46" height="38.4"/>
<rect x="259.6" y="11.6" class="st0" width="145.4" height="45.4"/>
<text transform="matrix(1 0 0 1 259.6363 26.5707)" class="st7 st8">Solar</text>
<text transform="matrix(1 0 0 1 259.6363 50.5707)" class="st7 st8">Generation </text>
<text transform="matrix(1 0 0 1 259.6363 84.8349)" class="st7 st8">Excess Solar</text>
<text transform="matrix(1 0 0 1 259.6363 108.8349)" class="st7 st8">Generation </text>
<text transform="matrix(1 0 0 1 456.8629 99.6759)" class="st7 st8">Perfect balance!</text>
<rect x="361.1" y="18.9" class="st0" width="150.4" height="45.4"/>
<text transform="matrix(1 0 0 1 394.8134 33.9435)" class="st7 st8">more flexible</text>
<text transform="matrix(1 0 0 1 439.5134 57.9435)" class="st7 st8">booking</text>
<rect x="696.1" y="18.9" class="st0" width="150.4" height="45.4"/>
<text transform="matrix(1 0 0 1 696.1373 33.9435)" class="st7 st8">less flexible</text>
<text transform="matrix(1 0 0 1 696.1373 57.9435)" class="st7 st8">booking</text>
<g>
	<line class="st0" x1="517.6" y1="56.1" x2="686.7" y2="56.1"/>
	<g>
		<line class="st10" x1="521.4" y1="56.1" x2="682.9" y2="56.1"/>
		<g>
			<polygon points="528.1,61.8 522.4,56.1 528.1,50.4 523.3,50.4 517.6,56.1 523.3,61.8 			"/>
		</g>
		<g>
			<polygon points="676.2,61.8 681.9,56.1 676.2,50.4 681,50.4 686.7,56.1 681,61.8 			"/>
		</g>
	</g>
</g>
<path class="st11" d="M218.1,66.2c-0.5-0.8-0.2-1.9,0.6-2.4c0.8-0.5,1.9-0.2,2.4,0.6c0,0,0,0,0,0l2.3,3.9c0.5,0.8,0.2,1.9-0.6,2.4
	c-0.8,0.5-1.9,0.2-2.4-0.6L218.1,66.2z M232.1,72c8.7,0,15.7,7.1,15.7,15.7c0,8.7-7.1,15.7-15.7,15.7c-8.7,0-15.7-7.1-15.7-15.7
	c0-4.2,1.7-8.2,4.6-11.1C223.9,73.6,227.9,71.9,232.1,72L232.1,72z M230.7,62c0-1,0.7-1.8,1.7-1.8c1,0,1.8,0.7,1.8,1.7
	c0,0.1,0,0.1,0,0.2v4.5c0,1-0.7,1.8-1.7,1.8c-1,0-1.8-0.7-1.8-1.7c0-0.1,0-0.1,0-0.2C230.7,66.5,230.7,62,230.7,62z M243.7,64.8
	c0.4-0.9,1.5-1.2,2.4-0.8c0.9,0.4,1.2,1.5,0.8,2.4c0,0.1-0.1,0.1-0.1,0.2l-2.3,3.9c-0.5,0.9-1.5,1.2-2.4,0.7
	c-0.9-0.5-1.2-1.5-0.7-2.4c0,0,0-0.1,0-0.1L243.7,64.8L243.7,64.8z M253.6,73.6c0.8-0.5,1.9-0.2,2.4,0.6c0.5,0.8,0.2,1.9-0.6,2.4
	l0,0l-3.9,2.3c-0.8,0.5-1.9,0.2-2.4-0.6c-0.5-0.8-0.2-1.9,0.6-2.4L253.6,73.6z M257.7,86.3c1,0,1.8,0.7,1.8,1.7c0,1-0.7,1.8-1.7,1.8
	c-0.1,0-0.1,0-0.2,0h-4.5c-1,0-1.8-0.7-1.8-1.7c0-1,0.7-1.8,1.7-1.8c0.1,0,0.1,0,0.2,0H257.7z M255,99.3c0.9,0.4,1.2,1.5,0.8,2.4
	c-0.4,0.9-1.5,1.2-2.4,0.8c0,0-0.1,0-0.1-0.1l-3.9-2.3c-0.9-0.4-1.2-1.5-0.8-2.4c0.4-0.9,1.5-1.2,2.4-0.8c0,0,0.1,0.1,0.1,0.1
	L255,99.3L255,99.3z M246.1,109.2c0.5,0.8,0.2,1.9-0.6,2.4c-0.8,0.5-1.9,0.2-2.4-0.6l0,0l-2.3-3.9c-0.5-0.8-0.2-1.9,0.6-2.4
	c0.8-0.5,1.9-0.2,2.4,0.6L246.1,109.2L246.1,109.2z M233.5,113.3c0,1-0.7,1.8-1.7,1.8s-1.8-0.7-1.8-1.7c0-0.1,0-0.1,0-0.2v-4.5
	c0-1,0.7-1.8,1.7-1.8s1.8,0.7,1.8,1.7c0,0.1,0,0.1,0,0.2V113.3z M220.5,110.6c-0.5,0.8-1.6,1.1-2.4,0.5c-0.8-0.5-1-1.5-0.6-2.3
	l2.3-3.9c0.4-0.9,1.5-1.2,2.3-0.8c0.9,0.4,1.2,1.5,0.8,2.3c0,0.1-0.1,0.1-0.1,0.2L220.5,110.6L220.5,110.6z M210.6,101.7
	c-0.8,0.5-1.9,0.2-2.4-0.6c-0.5-0.8-0.2-1.9,0.6-2.4l3.9-2.3c0.8-0.5,1.9-0.2,2.4,0.6c0.5,0.8,0.2,1.9-0.6,2.4L210.6,101.7
	L210.6,101.7z M206.5,89.1c-1,0-1.8-0.7-1.8-1.7c0-1,0.7-1.8,1.7-1.8c0.1,0,0.1,0,0.2,0h4.5c1,0,1.8,0.7,1.8,1.7
	c0,1-0.7,1.8-1.7,1.8c-0.1,0-0.1,0-0.2,0H206.5z M209.2,76.1c-0.9-0.4-1.2-1.5-0.8-2.4c0.4-0.9,1.5-1.2,2.4-0.8
	c0.1,0,0.1,0.1,0.2,0.1l3.9,2.3c0.9,0.5,1.2,1.5,0.7,2.4s-1.5,1.2-2.4,0.7c0,0-0.1,0-0.1,0L209.2,76.1z"/>
<circle class="st12" cx="428" cy="91.3" r="17.3"/>
<g>
	<g>
		<path class="st13" d="M33.4,72.1c-0.4,0-0.8,0.2-1.1,0.5L17.6,93.1L13.3,99c-0.3,0.4-0.3,0.9-0.1,1.4c0.2,0.4,0.7,0.7,1.2,0.7
			l7.9,0.1l3.9,0L21,117.6c-0.2,0.6,0.1,1.3,0.7,1.6l0.2,0.1c0.2,0.1,0.4,0.1,0.6,0.1c0.4,0,0.8-0.2,1.1-0.5l14.9-20.4l4.5-6.1
			c0.3-0.4,0.3-0.9,0.1-1.4c-0.2-0.4-0.7-0.7-1.2-0.7c0,0,0,0,0,0l-8.2,0l-3.9,0l5.2-16.4c0.2-0.6-0.1-1.3-0.7-1.6L34,72.2
			C33.8,72.1,33.6,72.1,33.4,72.1L33.4,72.1z"/>
	</g>
</g>
</svg>
