<?xml version="1.0" encoding="utf-8"?>
<!-- Generator: Adobe Illustrator 27.2.0, SVG Export Plug-In . SVG Version: 6.00 Build 0)  -->
<svg version="1.1" id="Layer_1" xmlns="http://www.w3.org/2000/svg" xmlns:xlink="http://www.w3.org/1999/xlink" x="0px" y="0px"
	 viewBox="0 0 122.9 122.9" style="enable-background:new 0 0 122.9 122.9;" xml:space="preserve">
<style type="text/css">
	.st0{fill:#FC8730;}
</style>
<path class="st0" d="M30,13.2c-1.1-1.9-0.5-4.3,1.3-5.4c1.9-1.1,4.3-0.5,5.4,1.3c0,0,0,0.1,0.1,0.1l5.1,8.7c1.1,1.9,0.5,4.3-1.4,5.4
	c-1.9,1.1-4.3,0.5-5.4-1.4L30,13.2z M61.5,26.2C81,26.2,96.7,42,96.7,61.5S80.9,96.7,61.4,96.7S26.2,80.9,26.2,61.4
	c0-9.3,3.7-18.3,10.3-24.9S52.1,26.2,61.5,26.2L61.5,26.2z M58.3,4c-0.1-2.2,1.6-4,3.7-4.1c2.1-0.1,4,1.6,4.1,3.7c0,0.1,0,0.3,0,0.4
	v10.1c0.1,2.2-1.6,4-3.7,4.1c-2.2,0.1-4-1.6-4.1-3.7c0-0.1,0-0.3,0-0.4C58.3,14.1,58.3,4,58.3,4z M87.5,10.1c1-1.9,3.3-2.7,5.3-1.8
	s2.7,3.3,1.8,5.3c-0.1,0.1-0.1,0.3-0.2,0.4l-5.1,8.8c-1,1.9-3.4,2.6-5.3,1.6s-2.6-3.4-1.6-5.3c0-0.1,0.1-0.1,0.1-0.2L87.5,10.1
	L87.5,10.1z M109.7,30c1.9-1.1,4.3-0.4,5.4,1.4c1.1,1.9,0.4,4.3-1.4,5.4l0,0l-8.8,5.1c-1.9,1.1-4.3,0.5-5.4-1.4s-0.5-4.3,1.4-5.4
	L109.7,30z M118.9,58.3c2.2-0.1,4,1.6,4.1,3.7c0.1,2.2-1.6,4-3.7,4.1c-0.1,0-0.3,0-0.4,0h-10.1c-2.2,0.1-4-1.6-4.1-3.7
	c-0.1-2.2,1.6-4,3.7-4.1c0.1,0,0.3,0,0.4,0H118.9z M112.8,87.5c1.9,1,2.7,3.4,1.7,5.3s-3.4,2.7-5.3,1.7c-0.1-0.1-0.2-0.1-0.3-0.2
	l-8.8-5.1c-1.9-1-2.7-3.4-1.7-5.3s3.4-2.7,5.3-1.7c0.1,0.1,0.2,0.1,0.3,0.2L112.8,87.5L112.8,87.5z M92.9,109.7
	c1.1,1.9,0.4,4.3-1.4,5.4s-4.3,0.4-5.4-1.4l0,0l-5.1-8.8c-1.1-1.9-0.5-4.3,1.4-5.4s4.3-0.5,5.4,1.4L92.9,109.7L92.9,109.7z
	 M64.6,118.9c0.1,2.2-1.6,4-3.7,4.1s-4-1.6-4.1-3.7c0-0.1,0-0.3,0-0.4v-10.1c-0.1-2.2,1.6-4,3.7-4.1s4,1.6,4.1,3.7
	c0,0.1,0,0.3,0,0.4V118.9z M35.4,112.8c-1.2,1.8-3.6,2.4-5.4,1.2c-1.7-1.1-2.3-3.3-1.4-5.1l5.1-8.8c0.9-2,3.3-2.8,5.3-1.8
	c2,0.9,2.8,3.3,1.8,5.3c-0.1,0.2-0.2,0.3-0.3,0.5L35.4,112.8L35.4,112.8z M13.2,92.9c-1.9,1.1-4.3,0.4-5.4-1.4
	c-1.1-1.9-0.4-4.3,1.4-5.4L18,81c1.9-1.1,4.3-0.5,5.4,1.4s0.5,4.3-1.4,5.4L13.2,92.9L13.2,92.9z M4,64.6c-2.2,0.1-4-1.6-4.1-3.7
	s1.6-4,3.7-4.1c0.1,0,0.3,0,0.4,0h10.1c2.2-0.1,4,1.6,4.1,3.7s-1.6,4-3.7,4.1c-0.1,0-0.3,0-0.4,0H4z M10.1,35.4
	c-1.9-1-2.7-3.3-1.8-5.3s3.3-2.7,5.3-1.8c0.1,0.1,0.3,0.1,0.4,0.2l8.8,5.1c1.9,1,2.6,3.4,1.6,5.3c-1,1.9-3.4,2.6-5.3,1.6
	c-0.1,0-0.1-0.1-0.2-0.1L10.1,35.4z"/>
</svg>
